<?xml version="1.0" encoding="UTF-8"?>
<svg width="195px" height="186px" viewBox="0 0 195 186" version="1.1" xmlns="http://www.w3.org/2000/svg" xmlns:xlink="http://www.w3.org/1999/xlink">
    <title>Ei-sc-github</title>
    <g id="Page-1" stroke="none" stroke-width="1" fill="none" fill-rule="evenodd">
        <g id="Ei-sc-github" fill="#181616">
            <path d="M97.8224717,0 C43.6940374,0 0,42.6553788 0,95.4971167 C0,137.515848 28.0424419,173.168105 67.1714306,185.901054 C72.3886291,186.537701 73.6929287,183.991111 73.6929287,181.444522 L73.6929287,164.891688 C46.3026366,170.621515 40.4332883,152.158739 40.4332883,152.158739 C35.8682396,141.335733 29.3467415,138.152495 29.3467415,138.152495 C20.2166442,132.422668 29.9988913,132.422668 29.9988913,132.422668 C39.7811385,133.059316 44.998337,141.97238 44.998337,141.97238 C53.4762845,156.615271 67.8235804,152.158739 73.6929287,149.612149 C74.3450785,143.245675 76.9536778,139.42579 80.2144268,136.879201 C58.693483,134.332611 35.8682396,126.056194 35.8682396,89.7672897 C35.8682396,79.5809306 39.7811385,70.6678664 45.6504868,64.3013919 C44.3461872,61.7548021 41.0854381,52.2050905 46.3026366,38.8354941 C46.3026366,38.8354941 54.7805842,36.2889043 73.0407789,48.3852058 C80.8665766,46.4752635 89.3445242,45.2019686 97.8224717,45.2019686 C106.300419,45.2019686 114.778367,46.4752635 122.604165,48.3852058 C141.516509,36.2889043 149.342307,38.8354941 149.342307,38.8354941 C154.559505,52.2050905 151.298756,61.7548021 149.994457,64.3013919 C156.515955,70.6678664 159.776704,79.5809306 159.776704,89.7672897 C159.776704,126.692841 136.95146,134.332611 115.430517,136.879201 C118.691266,140.062438 121.952015,145.792265 121.952015,154.705329 L121.952015,180.807874 C121.952015,183.354464 123.908464,186.537701 128.473513,185.264406 C167.602502,172.531457 194.992794,136.879201 194.992794,94.8604692 C195.644943,42.6553788 151.950906,0 97.8224717,0 Z" id="Path"></path>
        </g>
    </g>
</svg>