<?xml version="1.0" encoding="utf-8"?>
<!-- Generator: Adobe Illustrator 23.0.3, SVG Export Plug-In . SVG Version: 6.00 Build 0)  -->
<svg version="1.1" xmlns="http://www.w3.org/2000/svg" xmlns:xlink="http://www.w3.org/1999/xlink" x="0px" y="0px"
	 viewBox="0 0 195 195" style="enable-background:new 0 0 195 195;" xml:space="preserve">
<style type="text/css">
	.st0{fill:#12100E;}
	.st1{fill:#FFFFFF;}
</style>
<g id="Layer_2">
	<path class="st0" d="M97.4,195L97.4,195c-53.8,0-97.5-43.7-97.5-97.5l0,0C-0.1,43.7,43.6,0,97.4,0l0,0c53.8,0,97.5,43.7,97.5,97.5
		l0,0C194.9,151.3,151.2,195,97.4,195z"/>
</g>
<g id="Layer_1" inkscape:version="0.92.0 r15299" sodipodi:docname="In-Black-0p5in-R.svg" xmlns:cc="http://creativecommons.org/ns#" xmlns:dc="http://purl.org/dc/elements/1.1/" xmlns:inkscape="http://www.inkscape.org/namespaces/inkscape" xmlns:rdf="http://www.w3.org/1999/02/22-rdf-syntax-ns#" xmlns:sodipodi="http://sodipodi.sourceforge.net/DTD/sodipodi-0.dtd" xmlns:svg="http://www.w3.org/2000/svg">
	
		<sodipodi:namedview  bordercolor="#666666" borderopacity="1" gridtolerance="10" guidetolerance="10" id="namedview9" inkscape:current-layer="Layer_1" inkscape:cx="21.15" inkscape:cy="18" inkscape:pageopacity="0" inkscape:pageshadow="2" inkscape:window-height="838" inkscape:window-maximized="1" inkscape:window-width="1440" inkscape:window-x="-8" inkscape:window-y="-8" inkscape:zoom="6.5555556" objecttolerance="10" pagecolor="#ffffff" showgrid="false">
		</sodipodi:namedview>
	<g id="g6">
		<g id="g4">
			<path id="path2" inkscape:connector-curvature="0" class="st1" d="M68.5,149.7h-22V79.8h21.5v69.9H68.5z M57.5,70.1
				c-6.9,0-12.6-5.7-12.6-12.6s5.7-12.2,12.6-12.2s12.6,5.7,12.6,12.6S64.4,70.1,57.5,70.1z M149.8,149.7h-21.5v-34.2
				c0-8.1,0-18.7-11.4-18.7s-13,8.9-13,17.9v34.6h-22V79.8h20.7v9.4h0.4c2.8-5.7,10.2-11.4,20.7-11.4c22,0,26,14.6,26,33.3V149.7z"
				/>
		</g>
	</g>
</g>
</svg>
